<?xml version="1.0" encoding="UTF-8"?> <svg xmlns="http://www.w3.org/2000/svg" id="Layer_1" viewBox="0 0 66 66"><defs><style>.cls-1{fill:#1295d8;}</style></defs><path d="M43.91,58.44h-2.7c-1.33,0-2.46-.9-2.77-2.19l-.6-2.56c-2.18,.38-5.74,.51-8.51,.18l-.47,2.3c-.27,1.32-1.44,2.27-2.78,2.27h-3.39c-1.34,0-2.51-.95-2.78-2.27l-1.16-5.63c-3.12-2.22-8.53-8.16-8.53-16.25,0-15,12.97-15.18,13.1-15.18,.49,0,.89,.4,.89,.89s-.4,.89-.89,.89c-.11,0-11.32,.15-11.32,13.4,0,7.6,5.26,13.12,8.05,14.98l.3,.2,1.31,6.33c.1,.49,.54,.85,1.04,.85h3.39c.5,0,.94-.36,1.04-.85l.81-3.95,.84,.14c2.98,.5,7.55,.29,9.5-.22l.88-.23,1.01,4.29c.11,.48,.54,.82,1.04,.82h2.7c.47,0,.9-.32,1.03-.77l1.94-6.82,.43-.15c3.25-1.16,6.53-4.78,7.56-6.84l.18-.37,.4-.1c2.97-.74,4.77-1.92,5.66-3.69,.54-1.08-.61-3.51-1.46-4.89-1.1,.18-3.71,.5-4.92-3.1-.87-2.59-2.08-4.14-3.04-5.21l-.41-.46,.28-.54c.61-1.19,.66-2.69,.15-4.74-.22-.89-.21-1.63-.2-2.11,0-.05,0-.1,0-.15-.22,.02-.59,.09-1.22,.23-1.1,.26-1.81,.77-2.55,1.31-1.31,.95-2.8,2.04-6.26,1.42-.48-.09-.8-.55-.72-1.03s.55-.8,1.03-.72c2.71,.48,3.68-.22,4.9-1.11,.82-.59,1.74-1.27,3.2-1.6,1.53-.35,2.31-.43,2.88,.03,.53,.43,.52,1.08,.51,1.65,0,.44-.02,.98,.15,1.65,.55,2.2,.54,3.95-.04,5.42,1,1.17,2.15,2.83,3.01,5.39,.77,2.28,1.98,2.07,3.05,1.89,.23-.04,.44-.07,.63-.07h.47l.26,.38c.32,.47,3.12,4.66,1.88,7.14-1.08,2.16-3.19,3.64-6.43,4.52-1.26,2.24-4.4,5.74-7.92,7.18l-1.69,5.95c-.35,1.21-1.47,2.06-2.73,2.06Z"></path><g><ellipse class="cls-1" cx="50.74" cy="32.87" rx=".78" ry="1.69"></ellipse><path class="cls-1" d="M50.74,35.8c-1.19,0-2.02-1.21-2.02-2.93s.83-2.93,2.02-2.93,2.02,1.21,2.02,2.93-.83,2.93-2.02,2.93Z"></path></g><path d="M3.99,36.24c-.23,0-.45-.09-.63-.26-.35-.35-.35-.91,0-1.26,.83-.84,1.5-1.61,2.03-2.31-1.08-1.06-1.83-2.34-2.25-3.84-.45-1.61,.33-2.63,1.22-3.05,1.3-.62,2.99-.15,3.86,1.08,1.14,1.61,.58,3.63-.47,5.44,.97,.65,2.16,1.15,3.58,1.52,.47,.12,.76,.61,.64,1.08-.12,.47-.61,.76-1.08,.64-1.61-.42-2.98-1-4.12-1.76-.75,1.01-1.56,1.88-2.14,2.46-.17,.17-.4,.26-.63,.26Zm1.6-9.21c-.17,0-.34,.03-.47,.1-.12,.06-.48,.23-.27,.97,.3,1.08,.81,2,1.53,2.79,.82-1.55,.82-2.64,.38-3.26-.29-.4-.76-.6-1.17-.6Z"></path><path d="M39.84,24.63s-.06,0-.09,0l-7.01-.51-7.01,.51c-.69,.05-1.28-.46-1.33-1.15-.05-.68,.46-1.28,1.15-1.33l7.19-.53h.09s7.1,.53,7.1,.53c.68,.05,1.2,.65,1.15,1.33-.05,.65-.59,1.15-1.24,1.15Z"></path><path class="cls-1" d="M32.01,23.37c-4.36,0-7.9-3.55-7.9-7.9s3.55-7.9,7.9-7.9,7.9,3.55,7.9,7.9-3.55,7.9-7.9,7.9Zm0-14.03c-3.38,0-6.13,2.75-6.13,6.13s2.75,6.13,6.13,6.13,6.13-2.75,6.13-6.13-2.75-6.13-6.13-6.13Z"></path><path class="cls-1" d="M50.74,29.94c-1.19,0-2.02,1.21-2.02,2.93s.83,2.93,2.02,2.93,2.02-1.21,2.02-2.93-.83-2.93-2.02-2.93Z"></path></svg> 